<svg width="38" height="38" viewBox="0 0 38 38" fill="none" xmlns="http://www.w3.org/2000/svg">
<path d="M19 28C17.77 28 16.6075 27.7638 15.5125 27.2912C14.4175 26.8187 13.4612 26.1737 12.6437 25.3562C11.8262 24.5387 11.1812 23.5825 10.7088 22.4875C10.2362 21.3925 10 20.23 10 19C10 17.755 10.2362 16.5887 10.7088 15.5012C11.1812 14.4138 11.8262 13.4612 12.6437 12.6437C13.4612 11.8262 14.4175 11.1812 15.5125 10.7088C16.6075 10.2362 17.77 10 19 10C20.245 10 21.4112 10.2362 22.4987 10.7088C23.5862 11.1812 24.5387 11.8262 25.3562 12.6437C26.1737 13.4612 26.8187 14.4138 27.2912 15.5012C27.7638 16.5887 28 17.755 28 19C28 20.23 27.7638 21.3925 27.2912 22.4875C26.8187 23.5825 26.1737 24.5387 25.3562 25.3562C24.5387 26.1737 23.5862 26.8187 22.4987 27.2912C21.4112 27.7638 20.245 28 19 28ZM19 26.155C19.39 25.615 19.7275 25.0525 20.0125 24.4675C20.2975 23.8825 20.53 23.26 20.71 22.6H17.29C17.47 23.26 17.7025 23.8825 17.9875 24.4675C18.2725 25.0525 18.61 25.615 19 26.155ZM16.66 25.795C16.39 25.3 16.1537 24.7863 15.9513 24.2537C15.7488 23.7213 15.58 23.17 15.445 22.6H12.79C13.225 23.35 13.7687 24.0025 14.4212 24.5575C15.0738 25.1125 15.82 25.525 16.66 25.795ZM21.34 25.795C22.18 25.525 22.9263 25.1125 23.5788 24.5575C24.2312 24.0025 24.775 23.35 25.21 22.6H22.555C22.42 23.17 22.2512 23.7213 22.0487 24.2537C21.8462 24.7863 21.61 25.3 21.34 25.795ZM12.025 20.8H15.085C15.04 20.5 15.0062 20.2037 14.9837 19.9112C14.9612 19.6187 14.95 19.315 14.95 19C14.95 18.685 14.9612 18.3813 14.9837 18.0887C15.0062 17.7962 15.04 17.5 15.085 17.2H12.025C11.95 17.5 11.8937 17.7962 11.8562 18.0887C11.8187 18.3813 11.8 18.685 11.8 19C11.8 19.315 11.8187 19.6187 11.8562 19.9112C11.8937 20.2037 11.95 20.5 12.025 20.8ZM16.885 20.8H21.115C21.16 20.5 21.1938 20.2037 21.2163 19.9112C21.2388 19.6187 21.25 19.315 21.25 19C21.25 18.685 21.2388 18.3813 21.2163 18.0887C21.1938 17.7962 21.16 17.5 21.115 17.2H16.885C16.84 17.5 16.8062 17.7962 16.7837 18.0887C16.7612 18.3813 16.75 18.685 16.75 19C16.75 19.315 16.7612 19.6187 16.7837 19.9112C16.8062 20.2037 16.84 20.5 16.885 20.8ZM22.915 20.8H25.975C26.05 20.5 26.1062 20.2037 26.1437 19.9112C26.1812 19.6187 26.2 19.315 26.2 19C26.2 18.685 26.1812 18.3813 26.1437 18.0887C26.1062 17.7962 26.05 17.5 25.975 17.2H22.915C22.96 17.5 22.9938 17.7962 23.0163 18.0887C23.0387 18.3813 23.05 18.685 23.05 19C23.05 19.315 23.0387 19.6187 23.0163 19.9112C22.9938 20.2037 22.96 20.5 22.915 20.8ZM22.555 15.4H25.21C24.775 14.65 24.2312 13.9975 23.5788 13.4425C22.9263 12.8875 22.18 12.475 21.34 12.205C21.61 12.7 21.8462 13.2137 22.0487 13.7462C22.2512 14.2787 22.42 14.83 22.555 15.4ZM17.29 15.4H20.71C20.53 14.74 20.2975 14.1175 20.0125 13.5325C19.7275 12.9475 19.39 12.385 19 11.845C18.61 12.385 18.2725 12.9475 17.9875 13.5325C17.7025 14.1175 17.47 14.74 17.29 15.4ZM12.79 15.4H15.445C15.58 14.83 15.7488 14.2787 15.9513 13.7462C16.1537 13.2137 16.39 12.7 16.66 12.205C15.82 12.475 15.0738 12.8875 14.4212 13.4425C13.7687 13.9975 13.225 14.65 12.79 15.4Z" fill="#10100E" fill-opacity="0.8"/>
</svg>
